<svg xmlns="http://www.w3.org/2000/svg" width="1.05954in" height="0.907507in"
		viewBox="0 0 76.2869 65.3405">


	<path d="M16.74 57.6 C19.98 53.34 22.74 49.62 25.02 46.44 C27.3 43.32 29.1 40.8 30.42 39 C31.74 37.2 32.94 35.64 33.96
						 34.38 C36.24 31.26 40.08 34.32 39.6 37.32 C39.66 37.92 39 39.36 37.56 41.76 C36.18 44.16 35.1 46.02 34.44
						 47.4 C33.78 48.84 33.6 50.16 33.78 51.54 C33.96 52.32 34.38 52.56 34.98 52.98 C35.52 53.34 37.5 52.68 38.34
						 52.26 L46.32 47.88 L49.5 50.1 L49.5 50.1 C46.08 52.02 49.5 50.1 46.08 51.96 C36.6 57.24 25.26 63.72 28.32
						 53.46 C28.8 51.9 29.4 50.04 30.24 47.88 C31.02 45.72 31.8 43.68 32.46 41.88 C30 44.82 27.9 47.64 26.1 50.28
						 C24.3 52.92 22.8 55.26 21.72 57.18 C20.64 59.1 19.74 60.66 19.08 61.74 C17.88 63.84 16.56 65.04 15.24 65.28
						 C13.8 65.52 12.9 64.62 12.54 62.46 C12.36 61.56 12.66 59.88 13.38 57.42 C14.04 54.96 15.12 51.78 16.5 47.94
						 C16.68 47.64 16.68 47.28 16.62 46.74 C16.5 46.2 16.14 45.96 15.6 46.02 C15 46.14 14.22 46.92 13.26 48.36
						 C12.3 49.8 10.2 52.86 7.38 57.3 C2.52 65.58 2.58 65.34 2.58 65.34 C1.38 64.26 1.2 64.02 0 62.82 C2.22 59.1
						 3.24 57.06 6.12 52.32 C7.56 49.86 9.42 47.34 11.28 44.52 C13.2 41.64 14.94 39.24 16.62 37.32 C18.36 35.34
						 19.86 34.26 21.24 33.96 C22.08 33.84 22.8 34.02 23.4 34.62 C24.12 35.16 24.48 35.88 24.66 36.84 C24.78 37.5
						 24.54 38.76 24 40.62 C23.46 42.42 22.56 44.7 21.36 47.52 C20.22 50.28 18.66 53.64 16.74 57.6 Z"
					class="st2" fill="#fff"/>
		
</svg>
