<svg xmlns="http://www.w3.org/2000/svg" width="3.78819in" height="1.68058in"
		viewBox="0 0 272.75 121.002">
			<path d="M16.74 113.26 C19.98 109 22.74 105.28 25.02 102.1 C27.3 98.98 29.1 96.46 30.42 94.66 C31.74 92.86 32.94 91.3
						 33.96 90.04 C36.24 86.92 40.08 89.98 39.6 92.98 C39.66 93.58 39 95.02 37.56 97.42 C36.18 99.82 35.1 101.68
						 34.44 103.06 C33.78 104.5 33.6 105.82 33.78 107.2 C33.96 107.98 34.38 108.22 34.98 108.64 C35.52 109 37.5
						 108.34 38.34 107.92 L46.32 103.54 L49.5 105.76 L49.5 105.76 C46.08 107.68 49.5 105.76 46.08 107.62 C36.6
						 112.9 25.26 119.38 28.32 109.12 C28.8 107.56 29.4 105.7 30.24 103.54 C31.02 101.38 31.8 99.34 32.46 97.54
						 C30 100.48 27.9 103.3 26.1 105.94 C24.3 108.58 22.8 110.92 21.72 112.84 C20.64 114.76 19.74 116.32 19.08
						 117.4 C17.88 119.5 16.56 120.7 15.24 120.94 C13.8 121.18 12.9 120.28 12.54 118.12 C12.36 117.22 12.66 115.54
						 13.38 113.08 C14.04 110.62 15.12 107.44 16.5 103.6 C16.68 103.3 16.68 102.94 16.62 102.4 C16.5 101.86 16.14
						 101.62 15.6 101.68 C15 101.8 14.22 102.58 13.26 104.02 C12.3 105.46 10.2 108.52 7.38 112.96 C2.52 121.24
						 2.58 121 2.58 121 C1.38 119.92 1.2 119.68 0 118.48 C2.22 114.76 3.24 112.72 6.12 107.98 C7.56 105.52 9.42
						 103 11.28 100.18 C13.2 97.3 14.94 94.9 16.62 92.98 C18.36 91 19.86 89.92 21.24 89.62 C22.08 89.5 22.8 89.68
						 23.4 90.28 C24.12 90.82 24.48 91.54 24.66 92.5 C24.78 93.16 24.54 94.42 24 96.28 C23.46 98.08 22.56 100.36
						 21.36 103.18 C20.22 105.94 18.66 109.3 16.74 113.26 Z" class="st2" fill="#fff"/>
		
</svg>
