<?xml version="1.0" encoding="UTF-8" standalone="no"?>
<!DOCTYPE svg PUBLIC "-//W3C//DTD SVG 1.1//EN" "http://www.w3.org/Graphics/SVG/1.1/DTD/svg11.dtd">
<!-- Generated by Microsoft Visio, SVG Export logo.svg Page-1 -->
<svg xmlns="http://www.w3.org/2000/svg" xmlns:xlink="http://www.w3.org/1999/xlink" xmlns:ev="http://www.w3.org/2001/xml-events"
		xmlns:v="http://schemas.microsoft.com/visio/2003/SVGExtensions/" width="6.91247in" height="1.7853in"
		viewBox="0 0 497.698 128.541" xml:space="preserve" color-interpolation-filters="sRGB" class="st6">
	<v:documentProperties v:langID="1033" v:viewMarkup="false"/>

	<style type="text/css">
	<![CDATA[
		.st1 {fill:#f09702;stroke:none;stroke-linecap:butt;stroke-width:2.32306}
		.st2 {fill:#ffffff;stroke:none;stroke-linecap:butt;stroke-width:25.5}
		.st3 {fill:none;stroke:none;stroke-linecap:round;stroke-linejoin:round;stroke-width:0.75}
		.st4 {fill:#ffffff;font-family:Century;font-size:5.83333em}
		.st5 {fill:#ffffff;font-family:Century;font-size:5.83333em;font-weight:bold}
		.st6 {fill:none;fill-rule:evenodd;font-size:12px;overflow:visible;stroke-linecap:square;stroke-miterlimit:3}
	]]>
	</style>

	<g v:mID="0" v:index="1" v:groupContext="foregroundPage">
		<title>Page-1</title>
		<v:pageProperties v:drawingScale="1" v:pageScale="1" v:drawingUnits="19" v:shadowOffsetX="9" v:shadowOffsetY="-9"/>
		<g id="shape1-1" v:mID="1" v:groupContext="shape" transform="translate(2.32306,-2.32306)">
			<title>path4487</title>
			<path d="M72.94 19.34 C46.97 19.34 27.1 15.75 15.81 63.54 C4.29 111.34 0 128.54 0 128.54 L66.62 128.54 C82.66 128.54
						 97.56 126.39 105.92 94.37 C115.85 56.14 124.21 19.34 124.21 19.34 C124.21 19.34 98.92 19.1 72.94 19.34 Z"
					class="st1"/>
		</g>
		<g id="shape2-3" v:mID="2" v:groupContext="shape" transform="translate(10.0944,-33.2248) rotate(-45)">
			<title>send</title>
			<path d="M29.33 112.38 L2.81 99.4 C1.48 98.82 0 99.97 0.59 101.27 L4.3 110.94 L21.18 113.68 L4.3 116.42 L0.59 126.09
						 C0.15 127.39 1.48 128.54 2.81 127.82 L29.33 114.83 C30.37 114.4 30.37 112.96 29.33 112.38 Z" class="st2"/>
		</g>
		<g id="shape4-5" v:mID="4" v:groupContext="shape" transform="translate(29.3231,-35.0731)">
			<title>Sheet.4</title>
			<desc>TRAVEL</desc>
			<v:textBlock v:margins="rect(4,4,4,4)"/>
			<v:textRect cx="234" cy="118.541" width="468" height="20"/>
			<rect x="0" y="108.541" width="468" height="20" class="st3"/>
			<text x="95.93" y="139.54" class="st4" v:langID="1033"><v:paragraph v:horizAlign="1"/><v:tabList/>TRAVEL</text>		</g>
		<g id="shape6-8" v:mID="6" v:groupContext="shape" transform="translate(11.3231,-35.0731)">
			<title>Sheet.6</title>
			<desc>M</desc>
			<v:textBlock v:margins="rect(4,4,4,4)"/>
			<v:textRect cx="49.5" cy="118.541" width="99" height="20"/>
			<rect x="0" y="108.541" width="99" height="20" class="st3"/>
			<text x="16.45" y="139.54" class="st5" v:langID="1033"><v:paragraph v:horizAlign="1"/><v:tabList/>M</text>		</g>
	</g>
</svg>
