<svg xmlns="http://www.w3.org/2000/svg" width="163" height="22" viewBox="0 0 163 22"><g fill="none"><g fill="#00377B"><path d="M159.724 7.63l-.008.005a7.664 7.664 0 0 1-4.894 13.05 7.622 7.622 0 0 1-5.29-1.636l-.006.01a7.615 7.615 0 0 0 5.756 2.038 7.662 7.662 0 0 0 7.11-8.172 7.654 7.654 0 0 0-2.668-5.294zm-13.571 8.715c-.245.139-.3.34-.176.659.115.283.297.412.488.333.154-.061.18-.196.117-.542l-.026-.133c-.064-.34-.074-.486-.033-.631a.447.447 0 0 1 .278-.33c.348-.138.673.08.866.56.214.527.101.925-.313 1.095l-.101-.257c.288-.122.36-.39.204-.772-.124-.314-.319-.454-.53-.366-.17.065-.209.221-.146.576l.024.147.024.133c.042.263.047.356.024.467a.41.41 0 0 1-.267.301c-.324.128-.64-.063-.812-.502-.19-.477-.09-.828.274-.992l.105.254zm-.218-2.768l1.16-.975.01.36-.986.815.319.348.691-.009.008.283-1.976.043-.008-.287.779-.014h.206l-.066-.074-.07-.065-.87-.945-.01-.376zm.871-3.057l.763.266-.091.266-.76-.266-1.367.412.116-.326.85-.238.104-.03c.04-.013.067-.018.14-.032a1.994 1.994 0 0 1-.15-.194l-.521-.71.11-.311.806 1.162zm1.339-3.631l-.42.51 1.248 1.02-.3.365-1.248-1.02-.414.508-.283-.232 1.132-1.385zm2.665-1.872l-.996.581.21.366.917-.535.168.292-.91.533.243.422 1.016-.595.186.312-1.427.836-.995-1.708 1.404-.824zm2.692-.251a3.81 3.81 0 0 1-.213-.403 2.83 2.83 0 0 1-.083.448l-.081.379.575-.092-.198-.332zm1.132 1.016l-.517.035-.255-.428-.798.13-.11.485-.492.124.52-2.158.486-.077 1.166 1.89zm3.173.633l-.417-.156.16-.59c.016-.066.043-.162.076-.282.032-.123.064-.22.081-.29.03-.08.053-.162.082-.25l.042-.14c-.116.203-.161.271-.267.433-.042.073-.087.132-.12.182l-.56.786-.364-.095-.113-.946c-.01-.048-.011-.116-.017-.208a8.406 8.406 0 0 1-.017-.285 2.714 2.714 0 0 1 0-.237l-.052.237c-.058.263-.085.374-.16.682l-.167.637-.436-.069.494-1.932.662.126.096.917c.022.212.03.394.02.648.075-.146.101-.194.188-.325.058-.09.108-.164.153-.237l.519-.742.63.212-.513 1.924z"/><path d="M157.76 12.798c.571-.385 1.046-.593 1.34-.581.172.005.384.056.384.272 0 .223-.214.404-.624.555-.362.131-.919.165-1.522.098a3.52 3.52 0 0 1 .422-.344zm-8.013.7c-.356-.025-.526-.167-.526-.44 0-.036.022-.904 2.003-1.002.225-.013.475-.02.864.027-.02 0-.227.19-.227.19l-.124.114c-.474.436-1.278 1.16-1.99 1.11zm4.286-3.275c-.242.21-.718.668-1.175 1.107l-.52.497a7.165 7.165 0 0 0-1.275-.113c-.958 0-1.84.263-2.243.676-.154.155-.23.325-.228.504.014.47.546.702.709.766.854.317 1.569.225 2.322-.304.414-.292.916-.755 1.306-1.136.307.07.65.161 1.024.267l.341.103c-.444.436-.898.895-1.32 1.268l-.032.027c-.587.519-1.01.894-1.623 1.03-.43.092-.736.002-.837-.058-.01.002-.025.022-.025.022.355.289.689.456 1.268.406.554-.05 1.186-.395 1.838-1.006l.874-.857.617-.613a104.79 104.79 0 0 0 1.266.373c-.011 0-.767.745-.767.745l-.66.66c-.678.654-1.048.997-1.44 1.277-.654.463-1.215.702-1.705.736-.258.018-.626-.001-.934-.178-.013-.004-.029.012-.029.012.33.288.74.627 1.447.61.796-.025 1.501-.405 2.601-1.415.5-.461 1-.97 1.436-1.43l.817-.826c.538.119 1.016.17 1.55.157.773-.018 1.435-.387 1.44-.811.011-.313-.247-.483-.4-.581a1.761 1.761 0 0 0-.95-.277c-.582 0-1.186.258-1.8.764l-.41.364c.003-.003-.15-.04-.15-.04l-1.135-.324c.338-.314.621-.579.875-.81.627-.554 1.31-.784 1.713-.808.294-.02.805.008 1.014.156.011 0 .023-.023.023-.023-.56-.48-1.043-.542-1.44-.542-.393 0-1.025.124-1.798.723-.313.245-.721.656-1.152 1.088 0-.002-.574-.178-.574-.178l-.14-.042-.604-.184c.014 0 .347-.324.347-.324.408-.399.79-.777 1.088-1.035 1.092-.915 1.78-1.034 2.255-1.039.524 0 .939.106 1.237.322.006 0 .02-.021.02-.021-.61-.556-1.051-.732-1.81-.737-.677-.004-1.476.37-2.252 1.052zm-.201 3.003v.582-.582zm5.09-8.298c.036.021.103.065.13.014.017-.03-.023-.06-.055-.076l-.086-.048-.04.082.051.028zm.043.266l-.053-.029-.013-.197-.052-.028-.08.144-.044-.024.173-.31.134.075c.055.03.105.076.066.14-.031.064-.087.064-.145.033l.014.196zm.191-.096a.272.272 0 0 0-.11-.37.27.27 0 0 0-.37.106.275.275 0 0 0 .11.375.278.278 0 0 0 .37-.11zm-.54-.261a.324.324 0 0 1 .595.26.316.316 0 0 1-.422.167.326.326 0 0 1-.173-.427z"/></g><path fill="#DBA410" d="M15.118 15.552c-.25.142-2.038 1.656-5.595 1.656-2.996 0-6.197-1.533-7.201-1.504a1.913 1.913 0 0 0-.86.156c-.419.174-.828-.082-.6-.514a5.738 5.738 0 0 1 3.393-2.786c.924-.28 1.768-.377 2.205.11.964 1.07 2.704 2.39 4.394 2.561.137.017.75.07.76-.108.005-.105-.204-.172-.415-.19-1.727-.125-4.84-1.975-6.553-5.554-.644-1.344-1.152-2.645-2.273-3.213-.246-.119-.255-.577.267-.7.362-.088 2.662-.309 5.29 1.077 1.206.633 1.375 1.202 1.38 1.701-.012 3.752 1.886 5.24 2.621 5.68.409.247.79.35.832.221.033-.108-.075-.179-.17-.236-2.275-1.38-2.876-3.507-2.895-5.671-.018-2.142.776-3.995 1.339-5.513.081-.214.348-1.12.122-1.956-.17-.626-.03-.808.298-.808.36 0 .838.584 1.002.784.129.15.55.663 1.18 1.913 1.255 2.48 1.264 5.068 1.264 5.386 0 1.783-.46 1.985-1.207 2.356-.746.371-1.101.847-1.102 1.397-.003.565.393 1.156 1.101 1.366.551.162.9.1.872-.042-.023-.114-.267-.143-.337-.163-.748-.204-1.246-.587-1.246-1.159 0-.72.886-1.244 2.13-1.244 1.247 0 2.133.526 2.133 1.244 0 .572-.497.958-1.245 1.16-.07.022-.314.048-.337.162-.03.142.32.205.87.042.71-.207 1.103-.797 1.103-1.366 0-.552-.355-1.026-1.102-1.397-.75-.368-1.208-.573-1.208-2.353 0-.32.008-2.907 1.261-5.386.634-1.254 1.054-1.764 1.182-1.916.162-.2.644-.784 1.003-.784.329 0 .466.182.298.808-.229.835.039 1.74.12 1.956.563 1.52 1.357 3.37 1.34 5.511-.018 2.164-.619 4.291-2.896 5.672-.093.057-.203.13-.168.236.04.13.422.028.832-.22.735-.438 2.631-1.928 2.621-5.68.006-.499.174-1.068 1.38-1.702 2.63-1.385 4.927-1.163 5.29-1.077.522.123.513.581.266.7-1.12.567-1.63 1.87-2.272 3.213-1.712 3.58-4.825 5.429-6.55 5.556-.214.014-.423.083-.417.19.008.172.622.12.759.107 1.691-.172 3.429-1.493 4.393-2.561.439-.487 1.282-.392 2.207-.112a5.73 5.73 0 0 1 3.392 2.788c.228.434-.18.687-.599.513a1.957 1.957 0 0 0-.86-.155c-1.003-.029-4.204 1.504-7.201 1.504-3.557.002-5.344-1.514-5.59-1.656z"/><path fill="#006885" d="M106.156 10.032c0-.613.657-.94 1.377-.94 1.23 0 1.093.982 1.972.982.396 0 .642-.228.642-.62 0-.676-.902-1.125-2.299-1.17-1.342-.042-2.034.194-2.516.381-.535.21-.774.516-.774.996v6.646c0 .35.17.35.797.35s.8 0 .8-.35v-6.275zm-40.391 1.181c.002-2.521-2.196-2.92-3.791-2.92-1.288 0-2.44.324-2.985.564-.534.236-.581.533-.581 1.024l.003 6.43c0 .349.173.349.799.349.627 0 .797 0 .797-.349l-.003-5.937c0-.525.186-1.249 2.007-1.249 1.721 0 2.153 1.02 2.153 2.086l.003 5.1c0 .349.172.349.795.349.629 0 .8 0 .8-.349v-5.098h.003zm35.664 5.086c0 .35.173.35.797.35.627 0 .8 0 .8-.35l.007-7.571c.006-.557-.763-.418-1.153-.162-.436.285-.45.429-.45.98V16.3zm-8.45-4.466a738.49 738.49 0 0 0 1.832-4.79c.025-.064.09-.064.116.003.107.277 1.64 4.172 1.865 4.774.05.132.068.242-.105.242h-3.58c-.216 0-.164-.135-.129-.229zm4.41 1.463c.545 1.29 1.297 3.088 1.297 3.088.09.23.005.285.95.285.998 0 1.062-.032.864-.478-.053-.12-4.023-9.655-4.244-10.176-.22-.521-.316-.558-1.142-.558-.817 0-.923.021-1.151.558-.23.548-4.213 10.125-4.262 10.244-.17.409-.02.409.66.409.63 0 .708-.023.825-.29l1.23-3.076c.073-.189.098-.262.315-.262.843 0 3.238 0 4.345-.005.209.002.23.064.313.26zm5.763-7.269c-.087-.418-.551-.671-1.084-.557-.535.113-.852.531-.767.948.092.416.556.67 1.088.557.536-.115.855-.533.763-.948zm7.514 10.283c0 .349.172.349.796.349.626 0 .799 0 .799-.349l.006-10.856c.008-.557-.761-.416-1.15-.162-.437.285-.452.429-.452.98V16.31zm5.102-10.28c-.089-.416-.554-.67-1.085-.556-.537.112-.854.53-.768.947.088.416.556.67 1.088.557.535-.115.856-.532.765-.948zm-1.723 10.276c0 .348.169.348.792.348.627 0 .799 0 .799-.348l.008-7.575c.006-.557-.76-.418-1.152-.16-.437.284-.45.427-.45.98l.003 6.755zm10.687-5.084c.006-2.523-2.196-2.922-3.79-2.922-1.287 0-2.438.325-2.983.565-.539.238-.581.534-.581 1.024l.005 6.429c0 .35.17.35.792.35.631 0 .802 0 .802-.35l-.002-5.936c0-.525.186-1.249 2.006-1.249 1.722 0 2.152 1.019 2.152 2.088l.003 5.096c0 .35.173.35.796.35.63 0 .802 0 .802-.35v-5.095h-.002zm16.826 3.205c-.062-2.795-5.283-2.284-5.283-4.232 0-.761.784-1.112 1.632-1.112 1.222 0 1.624.407 1.883 1.002.117.279.359.534.826.534.35 0 .648-.222.648-.635 0-.617-.859-1.709-3.206-1.724-1.946-.013-3.264.73-3.264 2.264-.003 2.876 5.222 2.263 5.212 4.258-.002.823-.77 1.205-1.885 1.216-1.111.013-1.707-.44-2.028-1.217-.156-.32-.365-.606-.85-.597-.435.008-.694.289-.694.716 0 .586 1.023 1.95 3.5 1.95 2.03 0 3.544-.818 3.509-2.423zM41.12 16.306c0 .348.173.348.795.348.628 0 .8 0 .8-.348l.005-7.575c.007-.557-.76-.418-1.151-.16-.439.284-.452.427-.452.98l.003 6.755zm29.55.543c1.33.01 2.006-.23 2.804-.593.6-.284.6-.603.6-.97v-4.56c0-1.741-1.446-2.463-3.102-2.46-2.705.005-3.78 1.165-3.823 1.917-.024.399.216.693.682.703a.869.869 0 0 0 .831-.537c.332-.776.905-1.258 2.086-1.258.924 0 1.752.424 1.748 1.523v.486c0 .148 0 .181-.13.194-2.435.391-5.597 1.156-5.597 3.394-.001 1.39 1.667 2.159 3.901 2.161zm1.828-1.937c0 .846-1.1 1.068-1.908 1.068-1.436 0-2.148-.615-2.148-1.423 0-1.47 1.902-2.004 3.885-2.422.105-.022.17-.032.17.117v2.66zM42.844 6.03c-.09-.416-.552-.67-1.086-.556-.534.112-.853.53-.765.947.09.416.556.67 1.088.557.533-.115.854-.532.763-.948zm43.08 10.288c0 .35.17.349.797.349.624.002.8.002.8-.349v-5.413c0-2.15-2.02-2.6-3.218-2.6-1.398 0-2.194.403-2.738 1.003-.58-.633-1.358-1.002-2.716-1.002-.937 0-1.85.224-2.67.586-.59.263-.59.612-.59.95v6.475c0 .35.175.35.797.35.625 0 .798 0 .798-.35v-6.031c0-.901.724-1.147 1.669-1.149 1.18 0 1.901.556 1.901 1.946v5.235c0 .35.173.35.798.35s.796 0 .796-.35V10.98c0-1.059.553-1.847 1.823-1.847 1.233 0 1.76.805 1.76 1.87l-.006 5.315zm-40.143-5.116c.141-.998.903-2.097 2.403-2.11 1.258-.011 2.362.754 2.42 1.877.018.323-.07.366-.455.366h-4.248c-.115-.002-.13-.054-.12-.133zm6.41 3c0-.142-.108-.286-.311-.286-.184 0-.275.063-.386.256-.424.72-1.46 1.557-2.84 1.571-1.864.018-2.94-1.323-2.895-3.394 0-.07.03-.13.137-.134.11-.002 2.92-.005 5.751 0 .545.004.553-.356.553-.654 0-1.716-1.596-3.298-3.887-3.298-2.378 0-4.203 1.298-4.203 4.278 0 3.177 2.371 4.3 4.393 4.3 2.446.002 3.689-1.89 3.689-2.639zm75.256-3c.143-.998.903-2.097 2.404-2.11 1.258-.011 2.36.754 2.418 1.877.02.323-.066.366-.452.366h-4.247c-.117-.002-.134-.054-.123-.133zm6.412 3c0-.142-.11-.286-.313-.286-.181 0-.274.063-.384.256-.423.72-1.46 1.557-2.843 1.571-1.86.018-2.939-1.323-2.892-3.394 0-.07.03-.13.14-.134.107-.002 2.915-.005 5.749 0 .544.004.553-.356.553-.654 0-1.716-1.599-3.298-3.887-3.298-2.377 0-4.2 1.298-4.2 4.278 0 3.177 2.371 4.3 4.39 4.3 2.442.002 3.687-1.89 3.687-2.639zM34.24 16.106c.218.522.27.563 1.102.563.8 0 .816-.032 1.05-.568.232-.534 3.273-8.173 4.079-10.172.18-.443.102-.482-.616-.482-.627 0-.685.036-.804.307 0 0-3.404 8.704-3.48 8.91-.018.055-.09.06-.12-.01-.11-.246-3.566-8.928-3.566-8.928-.084-.221-.105-.301-1.04-.301-1.017 0-.949.096-.746.599.049.123 3.922 9.561 4.141 10.082zm19.495-7.701c-.373.005-.882 0-.882 0-.251 0-.254.14-.254.423 0 .27 0 .413.254.413h.882c.182-.001.188.02.186.208-.003.398 0 5.213 0 5.213 0 1.895 1.016 2.124 2.02 2.137.991.016 1.644-.278 1.632-.63-.007-.202-.14-.293-.371-.265-.164.02-.277.068-.494.068-.527 0-1.188-.142-1.188-1.295v-5.21c0-.203 0-.226.2-.225h1.437c.252 0 .261-.144.261-.413 0-.278-.009-.424-.26-.424h-1.446c-.194-.001-.19-.022-.192-.189V6.464c0-.28-.213-.381-.385-.366-.126.01-.276.092-.628.322-.464.303-.584.497-.584 1.048v.734c-.003.205-.01.2-.188.203z"/></g></svg>